<svg width="1000" height="1000" viewBox="0 0 1000 1000" fill="none" xmlns="http://www.w3.org/2000/svg">
  <defs>
    <!-- Background subtle studio lighting -->
    <radialGradient id="bgGlow" cx="50%" cy="45%" r="55%">
      <stop offset="0%" stop-color="#ffffff"/>
      <stop offset="70%" stop-color="#fff7ed"/>
      <stop offset="100%" stop-color="#ffedd5"/>
    </radialGradient>

    <!-- Floor shadow gradient -->
    <radialGradient id="floorShadow" cx="50%" cy="50%" r="50%">
      <stop offset="0%" stop-color="rgba(15, 23, 42, 0.35)"/>
      <stop offset="40%" stop-color="rgba(15, 23, 42, 0.18)"/>
      <stop offset="80%" stop-color="rgba(15, 23, 42, 0.04)"/>
      <stop offset="100%" stop-color="rgba(15, 23, 42, 0)"/>
    </radialGradient>

    <!-- Orange / Coral Office Gradient -->
    <linearGradient id="offTelGrad" x1="0%" y1="0%" x2="100%" y2="100%">
      <stop offset="0%" stop-color="#EA580C"/>
      <stop offset="50%" stop-color="#C2410C"/>
      <stop offset="100%" stop-color="#7C2D12"/>
    </linearGradient>

    <linearGradient id="offTelSpine" x1="0%" y1="0%" x2="100%" y2="0%">
      <stop offset="0%" stop-color="#431407"/>
      <stop offset="60%" stop-color="#9A3412"/>
      <stop offset="100%" stop-color="#EA580C"/>
    </linearGradient>

    <linearGradient id="offTelTop" x1="0%" y1="100%" x2="100%" y2="0%">
      <stop offset="0%" stop-color="#EA580C"/>
      <stop offset="100%" stop-color="#FB923C"/>
    </linearGradient>

    <linearGradient id="frontGloss" x1="0%" y1="0%" x2="100%" y2="100%">
      <stop offset="0%" stop-color="rgba(255,255,255,0.45)"/>
      <stop offset="30%" stop-color="rgba(255,255,255,0.12)"/>
      <stop offset="60%" stop-color="rgba(255,255,255,0)"/>
    </linearGradient>
  </defs>

  <!-- Background -->
  <rect width="1000" height="1000" fill="url(#bgGlow)"/>

  <!-- Pedestal Floor Shadow -->
  <ellipse cx="500" cy="855" rx="360" ry="42" fill="url(#floorShadow)"/>
  <ellipse cx="490" cy="845" rx="270" ry="24" fill="rgba(15, 23, 42, 0.45)"/>

  <!-- 3D SOFTWARE BOX -->
  <!-- Top Face -->
  <polygon points="280,160 680,140 740,205 350,230" fill="url(#offTelTop)"/>
  <polygon points="280,160 680,140 740,205 350,230" fill="rgba(255,255,255,0.2)"/>

  <!-- Spine / Left Face -->
  <polygon points="280,160 350,230 350,810 280,720" fill="url(#offTelSpine)"/>
  <g transform="translate(315, 480) rotate(-90)">
    <text x="0" y="0" fill="white" font-family="system-ui, -apple-system, sans-serif" font-weight="900" font-size="28" letter-spacing="4" text-anchor="middle">
      OFFICE • ACTIVACIÓN POR TELÉFONO
    </text>
  </g>

  <!-- Front Face -->
  <polygon points="350,230 740,205 740,760 350,810" fill="url(#offTelGrad)"/>
  <polygon points="350,230 740,205 740,760 350,810" fill="url(#frontGloss)"/>

  <!-- Badge / Tag -->
  <g transform="matrix(0.96 0 -0.05 0.98 385 260)">
    <rect x="0" y="0" width="220" height="38" rx="8" fill="#FDBA74"/>
    <text x="110" y="25" fill="#431407" font-family="system-ui, -apple-system, sans-serif" font-weight="900" font-size="15" letter-spacing="1" text-anchor="middle">
      📞 VÍA TELEFÓNICA MICROSOFT
    </text>
  </g>

  <!-- Main Art / Telephone + Office -->
  <g transform="matrix(0.96 0 -0.05 0.98 525 430)">
    <circle cx="0" cy="0" r="75" fill="rgba(255,255,255,0.18)"/>
    <circle cx="0" cy="0" r="55" fill="white"/>
    <text x="0" y="16" font-size="54" text-anchor="middle">📞</text>
  </g>

  <!-- Title & Features on Front -->
  <g transform="matrix(0.96 0 -0.05 0.98 385 570)">
    <text x="0" y="0" fill="white" font-family="system-ui, -apple-system, sans-serif" font-weight="900" font-size="34" letter-spacing="0">
      Office Profesional
    </text>
    <text x="0" y="32" fill="#FED7AA" font-family="system-ui, -apple-system, sans-serif" font-weight="700" font-size="19" letter-spacing="1">
      ACTIVACIÓN TELEFÓNICA
    </text>

    <!-- Checklist -->
    <g transform="translate(0, 65)">
      <circle cx="10" cy="0" r="6" fill="#FDBA74"/>
      <text x="26" y="5" fill="white" font-family="system-ui, sans-serif" font-weight="600" font-size="16">
        Alternativa 100% económica y legal
      </text>

      <circle cx="10" cy="30" r="6" fill="#FDBA74"/>
      <text x="26" y="35" fill="white" font-family="system-ui, sans-serif" font-weight="600" font-size="16">
        Incluye guía e instrucciones paso a paso
      </text>

      <circle cx="10" cy="60" r="6" fill="#FDBA74"/>
      <text x="26" y="65" fill="white" font-family="system-ui, sans-serif" font-weight="600" font-size="16">
        Word, Excel, PowerPoint, Outlook y más
      </text>
    </g>
  </g>

  <!-- Bottom Brand -->
  <g transform="matrix(0.96 0 -0.05 0.98 385 770)">
    <text x="0" y="0" fill="#FED7AA" font-family="system-ui, sans-serif" font-weight="800" font-size="15" letter-spacing="2">
      UPCLIC LICENCIAS • GARANTÍA 100%
    </text>
  </g>
</svg>
